<svg width="21" height="24" viewBox="0 0 21 24" fill="none" xmlns="http://www.w3.org/2000/svg">
<path d="M10.2295 13.0505C13.9353 13.0505 16.9394 10.129 16.9394 6.52523C16.9394 2.92144 13.9353 0 10.2295 0C6.52368 0 3.51953 2.92144 3.51953 6.52523C3.51953 10.129 6.52368 13.0505 10.2295 13.0505Z" fill="#55569E"/>
<path d="M20.211 19.9968C18.5065 16.3132 14.6645 13.7347 10.2543 13.7347C6.00648 13.7347 2.35389 16.0764 0.514069 19.4969C0.189394 19.9179 0 20.4178 0 20.9703C0 22.3385 1.13636 23.4173 2.51623 23.4173H17.8842C19.2911 23.4173 20.4004 22.3122 20.4004 20.9703C20.4004 20.6283 20.3463 20.2862 20.211 19.9968Z" fill="#55569E"/>
</svg>
