<svg width="204" height="231" viewBox="0 0 204 231" fill="none" xmlns="http://www.w3.org/2000/svg">
<path fill-rule="evenodd" clip-rule="evenodd" d="M18.4834 207.271L0 0H203.062L184.556 207.236L101.405 230.283L18.4834 207.271ZM101.536 92.0327H135.161L137.478 66.0049H101.628V66.0161H40.2388L39.7114 60.3062L38.5537 47.4185L37.9458 40.5962H101.52H101.628H165.271L164.663 47.4185L158.514 116.355H158.524L154.099 165.773L153.72 170.073L101.734 184.485V184.547H101.585L49.5068 170.054L45.9409 130.141H71.4414L73.2529 150.413L101.562 158.061H101.607V158.034L129.963 150.386L132.925 117.476H101.52V117.453H73.5479L73.0547 111.743L71.8965 98.855L71.2891 92.0327H101.52H101.524H101.536Z" fill="white"/>
</svg>
