<?xml version="1.0" standalone="no"?>
<!DOCTYPE svg PUBLIC "-//W3C//DTD SVG 20010904//EN"
 "http://www.w3.org/TR/2001/REC-SVG-20010904/DTD/svg10.dtd">
<svg version="1.0" xmlns="http://www.w3.org/2000/svg"
 width="2560.000000pt" height="1964.000000pt" viewBox="0 0 2560.000000 1964.000000"
 preserveAspectRatio="xMidYMid meet">

<g transform="translate(0.000000,1964.000000) scale(0.100000,-0.100000)"
fill="#000000" stroke="none">
<path d="M0 9820 l0 -9820 12800 0 12800 0 0 9820 0 9820 -12800 0 -12800 0 0
-9820z m19166 -2109 l-39 -17 99 2 c54 1 151 4 214 7 l115 6 -40 -19 c-28 -14
-34 -20 -19 -20 24 0 74 22 74 33 0 4 12 7 28 6 25 -1 25 -2 -13 -20 l-40 -18
32 -1 c17 0 35 5 38 10 3 6 12 10 18 10 7 0 6 -4 -3 -11 -11 -8 -6 -9 22 -6
20 3 46 3 58 0 20 -5 19 -7 -10 -20 -18 -7 -30 -16 -27 -19 7 -8 73 22 82 36
3 6 23 10 43 9 l37 0 -50 -24 -50 -23 155 -2 c85 -1 164 -5 175 -10 18 -8 17
-9 -7 -9 -33 -1 -58 -10 -58 -22 0 -5 41 -9 91 -9 80 0 90 -2 79 -15 -7 -8
-22 -15 -34 -16 -19 -1 -19 -2 3 -8 13 -3 53 1 89 10 35 9 75 14 89 11 l25 -5
-31 -13 c-17 -7 -38 -11 -46 -8 -8 4 -15 1 -15 -5 0 -8 18 -11 53 -10 59 3 89
-8 66 -22 -11 -7 -9 -9 6 -9 12 0 26 5 32 11 7 7 17 8 25 3 9 -6 1 -12 -27
-20 l-40 -11 60 -12 c33 -6 71 -13 85 -15 93 -11 131 -19 136 -27 3 -5 22 -9
42 -10 l37 -1 -45 -12 -45 -13 58 -13 c57 -13 77 -30 35 -30 -13 0 -29 -4 -37
-9 -35 -22 87 -24 128 -1 14 7 27 7 38 1 10 -5 31 -13 47 -16 36 -8 28 -16
-15 -17 -19 0 -38 -3 -43 -6 -12 -7 15 -22 42 -22 12 0 30 -4 40 -9 9 -5 28
-14 42 -20 l25 -11 -25 5 c-23 5 -23 5 -6 -6 11 -7 40 -12 65 -12 l46 0 -44
-11 -44 -12 39 -16 c68 -28 124 -48 132 -46 4 1 36 -13 72 -31 54 -28 62 -35
45 -41 -11 -4 -33 -6 -50 -3 -17 2 4 -11 50 -32 96 -43 105 -50 68 -59 -17 -5
-29 -3 -31 3 -2 6 -13 11 -25 11 -22 -1 -22 -1 -3 -15 11 -8 31 -14 45 -13 14
1 52 -10 85 -25 32 -15 69 -27 82 -27 13 0 24 -4 24 -10 0 -5 8 -10 18 -10 9
0 31 -9 47 -21 17 -11 40 -24 53 -29 22 -10 31 -30 12 -30 -5 0 -10 5 -10 10
0 6 -13 10 -30 10 -16 0 -30 5 -30 10 0 6 -9 10 -20 10 -33 0 -23 -17 25 -40
25 -12 59 -35 74 -51 16 -16 32 -29 36 -29 6 0 64 -41 89 -62 6 -4 0 -8 -12
-8 -13 0 -22 6 -22 15 0 9 -9 15 -24 15 -13 0 -26 5 -28 12 -2 6 -10 9 -17 7
-8 -3 23 -28 67 -57 83 -54 103 -72 80 -72 -8 0 -6 -6 5 -17 15 -15 19 -16 27
-4 7 13 11 13 25 1 16 -13 16 -14 0 -20 -14 -5 3 -24 74 -85 50 -43 91 -80 91
-82 0 -2 -9 -3 -19 -3 -11 0 -23 9 -26 20 -3 11 -15 20 -26 20 -12 0 -19 7
-19 20 0 15 -7 20 -25 20 -15 0 -25 6 -25 15 0 8 -11 17 -25 21 -14 3 -25 12
-25 20 0 8 -10 14 -22 14 -26 -1 -26 0 141 -150 75 -67 146 -143 264 -280 l37
-44 0 32 c0 21 -5 32 -14 32 -8 0 -16 10 -18 22 -2 13 -15 29 -30 36 -16 7
-28 21 -28 32 0 10 -9 22 -20 25 -11 3 -20 15 -20 25 0 13 -9 22 -25 26 -16 4
-25 13 -25 25 0 12 -7 19 -20 19 -13 0 -20 7 -20 20 0 11 3 20 6 20 11 0 110
-106 179 -193 39 -48 73 -87 78 -87 4 0 7 9 7 20 0 13 -9 22 -25 26 -18 4 -25
13 -25 30 0 12 -6 27 -12 31 -7 4 -18 17 -24 28 -6 11 -20 24 -32 30 -13 6
-22 19 -22 32 0 16 -6 23 -20 23 -11 0 -20 7 -20 15 0 8 4 15 8 15 13 0 173
-172 185 -197 6 -13 14 -23 19 -23 5 0 8 -6 6 -12 -4 -26 14 -108 26 -115 6
-5 22 -24 34 -44 12 -20 28 -42 36 -48 11 -9 12 -6 8 15 -2 14 -11 28 -18 31
-8 3 -14 19 -14 38 0 25 -5 35 -20 40 -11 3 -20 14 -20 23 1 12 8 9 28 -14 46
-54 112 -153 112 -169 0 -9 7 -18 15 -22 25 -9 42 -54 39 -103 l-2 -45 6 40
c7 37 8 38 19 20 12 -19 12 -18 13 8 0 16 -7 30 -15 33 -10 4 -15 19 -14 48 0
22 3 34 6 26 3 -8 19 -34 34 -56 21 -32 30 -57 33 -102 2 -33 7 -65 10 -70 3
-5 22 -41 42 -78 49 -92 54 -96 54 -43 1 41 2 43 15 25 8 -11 15 -33 15 -49 0
-17 8 -36 22 -46 18 -15 21 -27 20 -82 -1 -65 11 -110 22 -79 3 8 7 26 9 40
l4 25 11 -25 11 -25 0 29 c1 23 4 27 13 18 8 -8 8 -18 1 -34 -10 -23 9 -92 32
-113 18 -16 48 -93 42 -108 -3 -8 -1 -20 4 -28 6 -9 9 9 10 51 1 36 4 56 6 45
3 -11 10 -26 17 -34 6 -8 18 -37 27 -65 l17 -51 2 60 c2 74 18 47 19 -32 1
-29 6 -53 11 -53 6 0 11 -26 11 -57 1 -32 5 -71 9 -88 7 -28 8 -27 10 15 2 39
5 32 23 -57 11 -57 24 -103 29 -103 4 0 8 8 8 17 0 21 9 13 13 -13 1 -10 5
-23 9 -29 3 -5 9 -34 13 -62 4 -29 11 -55 16 -59 5 -3 9 -52 9 -110 0 -63 4
-104 10 -104 6 0 10 25 10 55 0 30 5 55 10 55 13 0 13 -125 1 -148 -5 -10 -6
-49 -2 -92 l8 -75 2 77 c1 91 20 117 22 31 1 -32 1 -73 0 -91 -2 -26 2 -35 17
-39 12 -3 22 -16 26 -35 7 -35 6 -93 -1 -65 -2 9 -8 17 -13 17 -5 0 -11 17
-13 38 -2 20 -4 -35 -5 -123 -1 -92 2 -154 7 -145 13 23 24 130 13 130 -8 0
-9 13 -3 55 0 5 6 4 12 -2 8 -8 9 -41 3 -110 -4 -54 -6 -102 -5 -107 1 -5 2
-45 2 -88 0 -43 4 -78 9 -78 6 0 10 18 10 40 0 22 4 40 8 40 10 0 4 -111 -12
-217 -7 -46 -9 -83 -4 -83 4 0 8 14 8 30 0 17 5 30 10 30 6 0 10 17 10 37 0
29 3 34 12 25 9 -9 9 -19 0 -45 -7 -18 -12 -45 -12 -60 0 -15 -4 -27 -10 -27
-5 0 -10 -8 -10 -18 0 -22 -22 -72 -32 -72 -5 0 -8 9 -8 20 0 11 5 20 10 20 6
0 10 9 10 20 0 27 -16 25 -24 -2 -10 -40 -7 -68 10 -75 11 -4 12 -8 4 -13 -6
-4 -14 -26 -17 -49 -3 -22 -9 -41 -14 -41 -5 0 -6 -6 -3 -14 3 -8 -2 -42 -12
-75 -9 -34 -14 -64 -10 -68 3 -3 6 3 6 15 0 12 5 22 10 22 6 0 10 11 10 24 0
14 4 27 9 31 15 9 23 -13 12 -33 -6 -11 -12 -30 -14 -43 -11 -60 -29 -109 -39
-109 -6 0 -9 -3 -5 -6 3 -3 2 -17 -3 -30 -7 -17 -6 -24 3 -24 6 0 3 -7 -8 -16
-11 -8 -19 -22 -17 -30 2 -8 -6 -39 -17 -69 -12 -30 -16 -55 -11 -55 6 0 10 9
10 20 0 22 15 27 26 8 5 -7 3 -8 -6 -3 -10 6 -12 1 -8 -19 4 -18 1 -29 -8 -33
-8 -3 -12 -8 -9 -12 15 -26 -54 -139 -76 -125 -5 3 -9 1 -9 -5 0 -5 7 -14 15
-18 13 -8 12 -13 -3 -46 -14 -31 -21 -37 -39 -32 -18 4 -25 -2 -39 -30 -9 -19
-34 -54 -55 -79 -21 -24 -39 -47 -39 -51 0 -4 -7 -13 -15 -19 -9 -7 -12 -16
-6 -25 7 -11 13 -9 30 8 11 11 21 18 21 15 0 -11 -37 -53 -42 -48 -3 2 -11 -2
-18 -11 -7 -8 -17 -15 -23 -15 -5 0 -35 -15 -66 -32 -31 -18 -62 -31 -68 -30
-7 2 -13 -2 -13 -8 0 -5 -10 -10 -22 -10 -16 0 -19 -3 -10 -9 10 -6 5 -12 -18
-21 -18 -7 -47 -23 -65 -36 -18 -12 -49 -28 -69 -35 -20 -7 -36 -17 -36 -21 0
-4 -5 -8 -11 -8 -6 0 -40 -14 -76 -30 -35 -17 -69 -30 -74 -30 -5 0 -27 -11
-50 -25 -22 -14 -44 -23 -49 -20 -6 3 -22 0 -37 -8 -16 -7 -43 -21 -61 -30
-19 -9 -42 -17 -52 -17 -10 0 -20 -5 -22 -10 -2 -6 -14 -12 -28 -14 -23 -2
-58 -14 -105 -35 -11 -5 -33 -14 -50 -20 -28 -10 -28 -10 9 -4 42 6 45 -10 4
-20 -13 -3 -53 -15 -90 -26 -57 -16 -68 -17 -68 -5 0 16 -9 18 -30 4 -12 -8
-12 -10 5 -10 15 -1 13 -4 -11 -14 -59 -26 -74 -28 -74 -12 0 9 -7 16 -16 16
-8 0 -12 -5 -9 -10 3 -6 0 -10 -7 -10 -10 0 -10 -2 1 -9 11 -7 4 -12 -25 -20
-21 -6 -46 -11 -55 -11 -9 0 -52 -9 -95 -21 -44 -11 -90 -22 -104 -24 -14 -2
-37 -8 -52 -14 -18 -7 -28 -7 -28 -1 0 6 -9 10 -21 10 -11 0 -18 -4 -14 -9 9
-15 -14 -24 -29 -11 -8 6 -16 7 -18 2 -4 -12 -226 -54 -240 -46 -6 4 -13 1
-17 -5 -4 -7 -42 -14 -87 -17 -43 -2 -87 -7 -98 -10 -10 -4 -22 -1 -26 6 -6
10 -25 10 -86 2 l-79 -10 72 2 c89 2 74 -10 -22 -18 -38 -3 -99 -10 -135 -15
-36 -5 -136 -13 -223 -16 -86 -4 -160 -11 -163 -16 -8 -14 -58 -10 -81 6 -19
13 -46 14 -220 3 -321 -20 -1752 -11 -1918 11 -54 8 -46 9 70 11 l130 3 -185
8 c-284 12 -306 15 -155 19 l140 3 -160 8 c-171 8 -596 34 -760 46 -87 7 -94
8 -50 13 l50 5 -55 7 c-30 4 -151 15 -268 25 -160 13 -207 20 -190 27 21 9 19
10 -17 14 -22 1 -159 16 -304 32 -145 17 -281 30 -302 30 -22 0 -39 4 -39 9 0
5 34 8 78 5 61 -3 48 0 -63 16 -77 11 -167 24 -200 29 l-60 9 50 2 50 3 -40 7
c-95 18 -287 47 -395 60 -101 12 -102 12 -45 19 l50 6 -100 18 c-55 10 -140
23 -189 28 -142 16 -174 27 -61 21 55 -2 97 -2 94 2 -3 3 -52 13 -110 22 -57
8 -105 17 -108 20 -2 2 22 5 55 5 32 1 50 3 39 5 -142 28 -273 60 -269 65 2 4
-35 10 -83 14 -49 4 -104 11 -123 15 -35 9 40 6 135 -5 31 -4 36 -3 23 5 -10
6 -38 11 -63 12 -24 0 -42 4 -39 9 3 5 -14 10 -38 11 -55 2 -70 4 -88 11 -8 4
-49 15 -90 26 l-75 20 60 -5 c33 -3 78 -8 100 -11 77 -10 28 7 -74 26 -57 11
-107 23 -110 27 -3 4 26 4 64 1 54 -5 62 -4 35 3 -19 6 -60 9 -90 8 -56 -1
-100 8 -100 20 0 4 -26 8 -57 10 -31 1 -62 7 -69 12 -6 6 -19 8 -28 4 -9 -3
-16 -1 -16 5 0 6 -6 11 -13 11 -7 0 -22 7 -33 16 -19 15 -19 15 2 9 12 -3 50
-12 85 -19 35 -8 73 -17 84 -21 11 -4 -3 7 -32 24 -29 17 -59 31 -68 31 -8 0
-33 11 -55 25 -22 14 -43 25 -47 25 -10 1 -60 39 -51 40 4 0 44 -9 89 -20 46
-11 85 -18 87 -16 2 2 -7 7 -20 11 -34 10 -128 56 -133 65 -3 5 -18 11 -34 15
-16 3 -36 14 -46 25 -9 10 -31 24 -48 31 -18 7 -60 35 -94 61 -34 26 -65 48
-69 48 -4 0 -24 15 -45 32 -21 18 -54 46 -74 61 -19 16 -32 33 -29 38 3 5 2 8
-3 7 -14 -4 -53 22 -53 35 0 7 -22 31 -49 54 -27 24 -69 69 -93 100 -50 66
-147 257 -159 312 -21 97 -32 137 -41 148 -12 14 -8 83 5 101 6 8 6 12 -1 12
-6 0 -12 21 -14 48 l-3 47 -17 -35 c-20 -40 -42 -70 -52 -70 -3 0 -5 36 -5 80
0 44 5 80 10 80 5 0 9 11 9 25 0 35 -13 31 -45 -15 -15 -22 -29 -40 -30 -40
-1 0 -2 20 -1 45 2 34 9 52 29 73 15 15 27 33 27 40 0 7 4 12 9 12 8 0 23 51
17 58 -2 1 -15 -7 -29 -19 -15 -11 -27 -17 -27 -12 0 15 30 106 38 117 12 15
23 46 16 46 -2 0 -24 -18 -49 -41 l-44 -40 10 38 c6 21 28 73 50 115 30 60 35
76 22 71 -10 -4 -25 -15 -33 -24 -8 -9 -27 -25 -43 -34 -24 -16 -27 -16 -21
-1 3 9 10 16 14 16 4 0 18 25 30 55 12 31 30 61 39 68 18 13 36 40 50 73 6 12
20 29 32 38 40 28 11 30 -32 2 -22 -15 -44 -25 -47 -21 -4 3 -2 9 4 13 6 4 21
26 32 49 l22 41 -56 -30 -56 -29 27 35 c15 20 34 36 41 36 8 0 14 7 14 16 0 9
17 32 37 52 21 19 42 43 48 52 5 10 16 28 24 41 14 23 14 23 -10 8 -13 -8 -37
-21 -54 -28 -30 -12 -30 -12 8 25 21 21 45 51 54 68 8 17 25 39 37 49 21 17
21 17 -9 7 -16 -6 -35 -16 -42 -22 -8 -6 -16 -8 -19 -6 -3 3 6 15 20 26 15 11
26 26 26 33 0 7 3 10 6 6 7 -7 55 47 74 83 l13 24 -29 -18 c-29 -19 -29 -19
-11 1 9 11 15 22 12 25 -7 6 109 128 122 128 5 0 23 15 40 33 17 17 42 40 57
50 44 30 29 40 -20 13 -61 -34 -66 -33 -24 7 19 18 45 45 57 60 13 15 29 27
37 27 13 0 31 27 28 42 -1 4 4 5 12 2 8 -3 17 0 22 7 5 8 3 10 -7 4 -8 -5 -5
2 6 15 19 23 19 23 1 16 -20 -7 -20 -7 0 15 10 12 51 47 89 77 39 30 75 59 80
64 10 10 -46 -12 -98 -38 l-27 -13 17 24 c10 13 23 23 29 20 7 -2 24 10 40 26
16 16 34 27 41 25 7 -3 13 -2 13 3 0 13 62 71 70 66 4 -3 16 5 26 17 19 20 19
21 -1 11 -18 -9 -83 -40 -110 -52 -5 -2 19 22 55 53 36 32 77 63 92 70 15 6
43 26 62 44 20 18 40 32 45 32 5 0 23 11 39 25 16 13 42 29 57 35 15 6 25 13
23 16 -3 3 -31 -7 -63 -21 -31 -15 -59 -25 -61 -22 -6 6 66 54 94 62 12 3 22
10 22 15 0 5 12 16 28 24 18 10 22 15 10 16 -9 0 -19 4 -22 8 -6 10 85 82 102
82 6 0 23 11 38 25 15 14 32 25 39 25 6 0 20 8 31 18 10 10 40 30 67 45 26 15
47 32 47 37 0 6 5 10 11 10 13 0 82 31 89 41 3 3 21 16 40 28 41 24 33 28 -11
5 l-30 -15 17 26 c9 14 28 28 41 31 14 4 36 17 50 30 14 13 31 24 38 24 7 0
29 11 49 25 20 13 63 39 96 57 34 18 69 40 78 49 10 8 30 19 45 23 15 3 27 11
27 16 0 6 6 10 13 10 6 0 23 10 37 21 l25 20 -25 -6 c-32 -8 -13 7 45 36 22
11 61 32 87 47 110 63 148 82 163 82 8 0 15 5 15 10 0 16 -18 12 -83 -21 -56
-28 -126 -55 -115 -44 4 5 125 69 173 92 17 8 37 18 45 23 35 21 123 60 135
60 8 0 21 7 29 16 9 8 16 12 16 7 0 -4 4 -3 8 2 9 14 116 65 217 105 44 18 85
36 90 40 6 4 42 20 80 35 71 27 129 65 153 96 17 24 69 34 88 18 13 -10 20 -8
42 16 15 15 20 24 12 20 -11 -6 -12 -5 -5 3 6 7 44 23 85 38 41 14 86 32 100
39 25 14 148 55 174 59 8 1 20 7 27 13 14 10 76 33 92 33 4 0 24 7 45 16 96
42 158 64 178 64 12 0 27 6 33 14 6 7 30 16 52 20 23 4 55 14 71 22 16 9 32
13 35 10 6 -6 -121 -66 -138 -66 -11 0 -127 -60 -116 -60 4 0 24 7 44 15 19 8
45 15 56 15 11 0 28 7 37 15 9 8 30 17 46 19 16 2 58 15 94 29 36 14 80 27 99
30 19 3 38 10 44 16 6 6 21 11 33 11 12 0 43 9 68 20 26 11 61 21 79 23 34 4
112 26 212 59 33 11 80 24 105 29 117 22 215 48 218 57 2 8 12 8 30 1 18 -7
28 -7 30 0 2 6 8 9 13 5 5 -3 9 0 9 6 0 6 4 9 9 6 5 -4 22 -2 38 4 26 10 27 9
8 -5 -11 -9 -36 -20 -57 -25 -20 -6 -40 -15 -43 -20 -8 -13 1 -13 24 -1 9 5
40 12 69 16 57 6 107 16 200 39 35 9 67 14 72 11 5 -3 12 -1 15 5 4 6 23 10
44 9 20 -2 43 1 50 5 16 10 139 36 166 35 16 0 13 -3 -10 -14 -16 -7 -39 -16
-49 -19 -42 -14 -6 -14 59 0 62 13 180 29 290 40 l40 4 -40 -20 c-37 -19 -38
-20 -10 -15 17 3 55 7 85 10 30 3 73 7 95 9 22 3 73 7 114 10 41 4 77 8 79 11
3 3 19 5 36 4 l31 0 -39 -18z m521 -7 c-30 -16 -44 -14 -32 5 3 6 18 11 33 11
l27 -1 -28 -15z m-1628 -47 c-2 -1 -22 -11 -44 -21 l-40 -18 19 20 c10 12 28
22 40 24 20 4 34 1 25 -5z m1876 -2 c-50 -18 -55 -18 -31 0 11 8 31 15 45 15
22 -1 19 -3 -14 -15z m602 -171 c-3 -3 -12 -4 -19 -1 -8 3 -5 6 6 6 11 1 17
-2 13 -5z m650 -310 c-3 -3 -12 -4 -19 -1 -8 3 -5 6 6 6 11 1 17 -2 13 -5z
m331 -215 c39 -19 42 -23 26 -32 -13 -7 -19 -7 -22 1 -2 7 -17 12 -32 12 -16
0 -32 5 -35 10 -4 6 -21 8 -41 4 -21 -4 -34 -2 -34 4 0 10 25 17 74 21 11 0
40 -9 64 -20z m-5768 -14 c-14 -8 -32 -14 -40 -14 -8 0 -1 7 15 14 39 18 57
18 25 0z m6075 -315 c3 -5 1 -10 -4 -10 -6 0 -11 5 -11 10 0 6 2 10 4 10 3 0
8 -4 11 -10z m-6906 -108 c-29 -22 -63 -36 -54 -22 3 6 12 10 19 10 8 0 19 7
26 15 7 8 17 15 23 15 5 0 -1 -8 -14 -18z m7021 -12 c12 -8 11 -10 -7 -10 -13
0 -23 5 -23 10 0 13 11 13 30 0z m48 -38 c2 -7 -3 -12 -12 -12 -9 0 -16 7 -16
16 0 17 22 14 28 -4z m42 -37 c11 -13 10 -14 -4 -9 -9 3 -16 10 -16 15 0 13 6
11 20 -6z m99 -89 c10 -12 8 -13 -8 -9 -12 3 -21 9 -21 14 0 14 16 11 29 -5z
m445 -452 c5 -14 4 -15 -9 -4 -17 14 -19 20 -6 20 5 0 12 -7 15 -16z m-8660
-111 c-10 -7 -24 -13 -31 -13 -8 0 -27 -7 -43 -15 -44 -23 -36 -11 16 23 26
18 52 28 61 25 14 -5 13 -8 -3 -20z m8852 -201 c-9 -8 -26 10 -26 26 1 15 2
15 15 -2 8 -11 13 -21 11 -24z m-9621 -632 c-3 -5 -11 -10 -16 -10 -6 0 -7 5
-4 10 3 6 11 10 16 10 6 0 7 -4 4 -10z m10215 -720 c0 -11 -4 -20 -10 -20 -5
0 -10 9 -10 20 0 11 5 20 10 20 6 0 10 -9 10 -20z m0 -86 c0 -8 -5 -12 -10 -9
-6 4 -8 11 -5 16 9 14 15 11 15 -7z m0 -1039 c0 -8 -4 -15 -10 -15 -5 0 -10 7
-10 15 0 8 5 15 10 15 6 0 10 -7 10 -15z m0 -155 c0 -5 -5 -10 -11 -10 -5 0
-7 5 -4 10 3 6 8 10 11 10 2 0 4 -4 4 -10z m-29 -63 c-8 -8 -11 -7 -11 4 0 20
13 34 18 19 3 -7 -1 -17 -7 -23z m-24 -89 c-3 -8 -6 -5 -6 6 -1 11 2 17 5 13
3 -3 4 -12 1 -19z m-9601 -459 c8 -14 -10 -11 -32 6 -18 13 -18 14 4 8 12 -3
25 -9 28 -14z m9414 -15 c0 -8 -4 -12 -10 -9 -5 3 -10 10 -10 16 0 5 5 9 10 9
6 0 10 -7 10 -16z m-20 -20 c0 -8 -32 -33 -42 -34 -5 0 -8 5 -8 10 0 6 7 10
15 10 8 0 15 5 15 10 0 6 5 10 10 10 6 0 10 -3 10 -6z m-8657 -341 c-7 -2 -21
-2 -30 0 -10 3 -4 5 12 5 17 0 24 -2 18 -5z m7684 -239 c-3 -3 -12 -4 -19 -1
-8 3 -5 6 6 6 11 1 17 -2 13 -5z m-6379 -81 c-10 -2 -26 -2 -35 0 -10 3 -2 5
17 5 19 0 27 -2 18 -5z m4625 -300 c-13 -2 -33 -2 -45 0 -13 2 -3 4 22 4 25 0
35 -2 23 -4z m-590 -10 c-7 -2 -21 -2 -30 0 -10 3 -4 5 12 5 17 0 24 -2 18 -5z
m-305 -10 c-43 -2 -113 -2 -155 0 -43 1 -8 3 77 3 85 0 120 -2 78 -3z m-530
-10 c-26 -2 -71 -2 -100 0 -29 2 -8 3 47 3 55 0 79 -1 53 -3z"/>
<path d="M19060 7690 c-8 -5 -10 -10 -5 -10 6 0 17 5 25 10 8 5 11 10 5 10 -5
0 -17 -5 -25 -10z"/>
<path d="M19250 7664 c-17 -9 -20 -14 -9 -14 9 0 22 7 29 15 15 18 13 18 -20
-1z"/>
<path d="M19340 7670 c-9 -6 -10 -10 -3 -10 6 0 15 5 18 10 8 12 4 12 -15 0z"/>
<path d="M17510 7510 c-8 -5 -12 -12 -9 -15 4 -3 12 1 19 10 14 17 11 19 -10
5z"/>
<path d="M15290 6688 c0 -11 12 -10 30 2 12 7 10 9 -8 7 -12 0 -22 -5 -22 -9z"/>
<path d="M15240 6669 c-19 -11 -26 -17 -15 -13 11 3 28 9 38 11 9 3 17 9 17
14 0 11 1 12 -40 -12z"/>
<path d="M15170 6630 c-8 -5 -10 -10 -5 -10 6 0 17 5 25 10 8 5 11 10 5 10 -5
0 -17 -5 -25 -10z"/>
<path d="M21785 6530 c3 -5 10 -10 16 -10 5 0 9 5 9 10 0 6 -7 10 -16 10 -8 0
-12 -4 -9 -10z"/>
<path d="M14435 6150 c-3 -6 1 -7 9 -4 18 7 21 14 7 14 -6 0 -13 -4 -16 -10z"/>
<path d="M22330 6051 c0 -5 7 -14 15 -21 12 -10 15 -10 15 3 0 8 -7 17 -15 21
-8 3 -15 2 -15 -3z"/>
<path d="M22300 6015 c7 -8 16 -15 21 -15 5 0 9 7 9 15 0 9 -9 15 -21 15 -18
0 -19 -2 -9 -15z"/>
<path d="M22345 5950 c3 -5 8 -10 11 -10 2 0 4 5 4 10 0 6 -5 10 -11 10 -5 0
-7 -4 -4 -10z"/>
<path d="M22506 5815 c4 -8 8 -15 10 -15 2 0 4 7 4 15 0 8 -4 15 -10 15 -5 0
-7 -7 -4 -15z"/>
<path d="M22617 5629 c4 -13 8 -18 11 -10 2 7 -1 18 -6 23 -8 8 -9 4 -5 -13z"/>
<path d="M22687 5508 c13 -26 18 -29 21 -15 4 19 -14 47 -29 47 -5 0 -2 -15 8
-32z"/>
<path d="M22793 5380 c-7 -25 -7 -39 1 -49 9 -12 12 -9 14 12 2 15 2 37 0 50
-4 19 -6 17 -15 -13z"/>
<path d="M22891 5218 c0 -7 4 -22 9 -33 8 -18 9 -17 9 7 1 15 -3 30 -9 33 -5
3 -10 0 -9 -7z"/>
<path d="M13029 4700 l-24 -20 28 11 c15 7 27 16 27 21 0 12 -5 10 -31 -12z"/>
<path d="M12861 4130 c-13 -11 -19 -20 -14 -20 6 0 18 9 28 20 23 25 17 25
-14 0z"/>
<path d="M23340 3540 c0 -11 5 -20 10 -20 6 0 10 9 10 20 0 11 -4 20 -10 20
-5 0 -10 -9 -10 -20z"/>
<path d="M13021 3220 c1 -42 1 -43 9 -16 6 17 5 36 0 45 -7 11 -9 3 -9 -29z"/>
<path d="M23291 3154 c0 -11 3 -14 6 -6 3 7 2 16 -1 19 -3 4 -6 -2 -5 -13z"/>
<path d="M13350 2666 c0 -3 46 -28 103 -56 56 -29 98 -47 92 -42 -10 10 -181
102 -191 102 -2 0 -4 -2 -4 -4z"/>
<path d="M23200 2590 c0 -5 5 -10 10 -10 6 0 10 5 10 10 0 6 -4 10 -10 10 -5
0 -10 -4 -10 -10z"/>
<path d="M23180 2560 c0 -5 5 -10 10 -10 6 0 10 5 10 10 0 6 -4 10 -10 10 -5
0 -10 -4 -10 -10z"/>
<path d="M23167 2533 c-4 -3 -7 -11 -7 -17 0 -6 5 -5 12 2 6 6 9 14 7 17 -3 3
-9 2 -12 -2z"/>
<path d="M23143 2463 c-7 -3 -13 -11 -13 -19 0 -8 -5 -14 -11 -14 -5 0 -7 -4
-4 -10 10 -16 19 -11 32 17 14 29 14 32 -4 26z"/>
<path d="M22938 2163 c7 -3 16 -2 19 1 4 3 -2 6 -13 5 -11 0 -14 -3 -6 -6z"/>
<path d="M22839 2120 c-31 -25 -12 -26 21 0 14 11 20 20 14 20 -7 0 -22 -9
-35 -20z"/>
<path d="M14288 2113 c7 -3 16 -2 19 1 4 3 -2 6 -13 5 -11 0 -14 -3 -6 -6z"/>
<path d="M22690 2040 c-13 -9 -13 -10 0 -9 8 0 24 4 35 9 l20 9 -20 0 c-11 0
-27 -4 -35 -9z"/>
<path d="M22655 2020 c-3 -5 -1 -10 4 -10 6 0 11 5 11 10 0 6 -2 10 -4 10 -3
0 -8 -4 -11 -10z"/>
<path d="M22595 1990 c-3 -6 1 -7 9 -4 18 7 21 14 7 14 -6 0 -13 -4 -16 -10z"/>
<path d="M14928 1893 c6 -2 18 -2 25 0 6 3 1 5 -13 5 -14 0 -19 -2 -12 -5z"/>
<path d="M15008 1843 c6 -2 18 -2 25 0 6 3 1 5 -13 5 -14 0 -19 -2 -12 -5z"/>
<path d="M15273 1773 c9 -2 23 -2 30 0 6 3 -1 5 -18 5 -16 0 -22 -2 -12 -5z"/>
<path d="M21865 1673 c-11 -3 -24 -10 -30 -15 -7 -7 -2 -9 15 -4 14 3 33 6 43
6 9 0 17 5 17 10 0 10 -11 11 -45 3z"/>
<path d="M16028 1623 c7 -3 16 -2 19 1 4 3 -2 6 -13 5 -11 0 -14 -3 -6 -6z"/>
<path d="M21730 1620 c0 -5 5 -10 11 -10 5 0 7 5 4 10 -3 6 -8 10 -11 10 -2 0
-4 -4 -4 -10z"/>
<path d="M21488 1553 c7 -3 16 -2 19 1 4 3 -2 6 -13 5 -11 0 -14 -3 -6 -6z"/>
<path d="M20280 1390 c-30 -5 -93 -8 -139 -9 -46 -1 -82 -4 -78 -7 9 -10 397
7 397 17 0 10 -101 10 -180 -1z"/>
<path d="M18253 1373 c42 -2 112 -2 155 0 42 1 7 3 -78 3 -85 0 -120 -2 -77
-3z"/>
</g>
</svg>
